<svg id="undraw_approve_jz6b" xmlns="http://www.w3.org/2000/svg" width="312.671" height="371.109" viewBox="0 0 312.671 371.109">
  <path id="Path_336" data-name="Path 336" d="M555.944,239.95a12.742,12.742,0,0,0-11.652-7.8H311.709A12.615,12.615,0,0,0,299.1,244.761V539a12.615,12.615,0,0,0,12.608,12.608H544.3A12.625,12.625,0,0,0,556.908,539V244.761a12.384,12.384,0,0,0-.956-4.812ZM554.1,539a9.82,9.82,0,0,1-9.808,9.808H311.709A9.809,9.809,0,0,1,301.9,539V244.763a9.821,9.821,0,0,1,9.808-9.808H544.3a9.857,9.857,0,0,1,9.1,6.17,10.869,10.869,0,0,1,.369,1.107,9.726,9.726,0,0,1,.335,2.532Z" transform="translate(-299.101 -180.5)" fill="#3f3d56"/>
  <path id="Path_337" data-name="Path 337" d="M507.407,301.623H437.35a5.6,5.6,0,0,1,0-11.21h70.057a5.6,5.6,0,1,1,0,11.21Z" transform="translate(-299.101 -180.5)" fill="#3f3d56"/>
  <path id="Path_338" data-name="Path 338" d="M507.407,331.047H437.35a5.6,5.6,0,1,1,0-11.21h70.057a5.6,5.6,0,1,1,0,11.21Z" transform="translate(-299.101 -180.5)" fill="#3f3d56"/>
  <path id="Path_339" data-name="Path 339" d="M401.4,347.8h-51.2a6.312,6.312,0,0,1-6.306-6.306V281.078a6.312,6.312,0,0,1,6.306-6.306h51.2a6.312,6.312,0,0,1,6.306,6.306v60.417A6.312,6.312,0,0,1,401.4,347.8Z" transform="translate(-299.101 -180.5)" fill="#0768ff"/>
  <path id="Path_340" data-name="Path 340" d="M506.921,391.3H348.592a5.6,5.6,0,0,1,0-11.21H506.921a5.6,5.6,0,1,1,0,11.21Z" transform="translate(-299.101 -180.5)" fill="#ccc"/>
  <path id="Path_341" data-name="Path 341" d="M506.921,420.72H348.592a5.6,5.6,0,0,1,0-11.21H506.921a5.6,5.6,0,1,1,0,11.21Z" transform="translate(-299.101 -180.5)" fill="#ccc"/>
  <path id="Path_342" data-name="Path 342" d="M506.921,450.144H348.592a5.6,5.6,0,0,1,0-11.21H506.921a5.6,5.6,0,1,1,0,11.21Z" transform="translate(-299.101 -180.5)" fill="#ccc"/>
  <path id="Path_343" data-name="Path 343" d="M506.921,479.568H348.592a5.6,5.6,0,0,1,0-11.21H506.921a5.6,5.6,0,1,1,0,11.21Z" transform="translate(-299.101 -180.5)" fill="#ccc"/>
  <path id="Path_344" data-name="Path 344" d="M506.921,508.992H348.592a5.6,5.6,0,0,1,0-11.21H506.921a5.6,5.6,0,1,1,0,11.21Z" transform="translate(-299.101 -180.5)" fill="#ccc"/>
  <circle id="Ellipse_44" data-name="Ellipse 44" cx="54.09" cy="54.09" r="54.09" transform="translate(204.492 0)" fill="#0768ff"/>
  <path id="Path_395" data-name="Path 395" d="M552.323,255.223a5.61,5.61,0,0,1-3.375-1.122l-.06-.045-12.712-9.724a5.649,5.649,0,1,1,6.874-8.966l8.234,6.314L570.74,216.3a5.647,5.647,0,0,1,7.917-1.046h0l-.121.168.124-.168a5.654,5.654,0,0,1,1.044,7.918l-22.885,29.843a5.65,5.65,0,0,1-4.493,2.2Z" transform="translate(-299.101 -180.5)" fill="#fff"/>
</svg>
